<svg width="43" height="44" viewBox="0 0 43 44" fill="none" xmlns="http://www.w3.org/2000/svg">
<path d="M16.3688 4.84245e-08C19.5001 -6.73511e-05 22.5658 0.898121 25.2021 2.588C27.8383 4.27787 29.9345 6.68851 31.2418 9.53389C32.5492 12.3793 33.0129 15.54 32.578 18.641C32.143 21.742 30.8277 24.6532 28.788 27.0291L43 41.2411L41.2197 43.0214L27.0052 28.8068C25.0004 30.5212 22.6111 31.7256 20.0406 32.3176C17.4701 32.9095 14.7946 32.8714 12.242 32.2066C9.68937 31.5417 7.33526 30.2697 5.38016 28.499C3.42505 26.7283 1.92687 24.5113 1.01321 22.0368C0.0995521 19.5623 -0.202514 16.9037 0.132738 14.2873C0.46799 11.6709 1.43063 9.17428 2.93866 7.01009C4.4467 4.84591 6.45546 3.07825 8.79385 1.85769C11.1323 0.63712 13.731 -0.000202837 16.3688 4.84245e-08ZM16.3688 2.51808C12.6957 2.51808 9.17302 3.97721 6.57575 6.57449C3.97848 9.17176 2.51934 12.6944 2.51934 16.3675C2.51934 20.0406 3.97848 23.5633 6.57575 26.1606C9.17302 28.7578 12.6957 30.217 16.3688 30.217C20.0419 30.217 23.5645 28.7578 26.1618 26.1606C28.7591 23.5633 30.2182 20.0406 30.2182 16.3675C30.2182 12.6944 28.7591 9.17176 26.1618 6.57449C23.5645 3.97721 20.0419 2.51808 16.3688 2.51808Z" fill="#999999"/>
</svg>
